<?xml version="1.0" encoding="UTF-8"?>
<svg id="Layer_2" xmlns="http://www.w3.org/2000/svg" version="1.1" viewBox="0 0 120 120">
  <!-- Generator: Adobe Illustrator 29.0.0, SVG Export Plug-In . SVG Version: 2.1.0 Build 186)  -->
  <g id="Layer_1-2">
    <g id="Icon_x5F_Black">
      <path d="M38.7,27.5c-1.7,3.7-3.4,6.7-2.5,10.9.6,3,2.5,5.6,4.7,7.7,5.7,5.4,13.4,7.6,20.4,10.6,7.4,3.1,16.3,5.7,22.3,11.1,5.5,4.9,7.4,12.7,5.3,19.7-7.7,25.7-47.1,27.7-56.3,2.1-1-2.9-.9-6.3-3.4-8.4-2-1.7-4.8-1.9-7.1-.5-5.2,3.5-1.4,11.5.7,15.7,5.8,11.7,17.9,20.7,30.8,22.6,13.1,2,26.4-2.3,35.7-11.8,9.4-9.6,13.9-22.9,9.6-36-4.3-13-16.1-18.1-28-22.5-7.2-2.6-14.7-4.8-21.6-8.2-5.5-2.7-9.7-7-10.7-13.1h0Z"/>
      <path d="M31,38.6c0-10.9,8.6-21,18.5-24.7,9.7-3.6,20.9-1.6,28.9,4.9,3.7,3.1,6.9,7.2,8.3,11.8.7,2.5.7,5,2.6,6.9,1.4,1.3,3.6,2.3,5.5,1.8,5.7-1.4,4.9-8.6,3.3-12.6-1.8-4.4-4.3-8.5-7.3-12.1C78.1-.2,55.7-4,39,6.3c-8.6,5.3-15.8,13.8-17.9,23.8-2,9.3-.3,19.6,5.9,27,7.2,8.6,18.5,12,28.6,15.8,5.6,2.1,11.7,4,16.7,7.3,4.4,3,6.8,7.1,8.8,11.9,5.4-5,3.5-12.5-1.3-17.4-5.1-5.3-11.9-8.4-18.7-11.1-11.7-4.7-30.6-9-30.1-25h0Z"/>
    </g>
  </g>
</svg>