<?xml version="1.0" encoding="UTF-8"?>
<svg id="Layer_2" xmlns="http://www.w3.org/2000/svg" viewBox="0 0 367.82 539.3">
  <g id="Layer_1-2" data-name="Layer_1">
    <g id="Icon_x5F_Black">
      <path d="M87.11,122.16c-7.75,16.62-15.58,30.15-11.53,49.19,2.91,13.7,11.19,25.36,21.2,34.87,25.65,24.35,60.52,34.62,92.43,47.88,33.36,13.87,73.85,25.86,101.15,50.41,24.78,22.28,33.51,57.78,24.03,89.49-34.81,116.48-213.65,125.44-255.01,9.46-4.66-13.08-4.11-28.35-15.56-37.92-9.17-7.66-21.95-8.83-32.03-2.09-23.46,15.7-6.24,52.22,3.28,71.39,26.39,53.15,81,93.62,139.72,102.36,59.49,8.85,119.82-10.57,162-53.43,42.66-43.35,63.07-103.83,43.67-163.1-19.27-58.88-72.89-82.26-126.88-101.79-32.56-11.78-66.71-21.94-97.83-37.21-24.73-12.13-43.82-31.56-48.64-59.51Z"/>
      <path d="M52.48,172.46c0-49.45,38.82-95.03,83.9-111.81,43.8-16.31,94.85-7.38,130.84,22.32,16.84,13.9,31.4,32.45,37.7,53.59,3.32,11.15,2.95,22.71,12.01,31.25,6.24,5.88,16.23,10.28,24.83,8.21,26.06-6.27,22.32-38.79,14.79-56.99-8.19-19.79-19.33-38.35-33.23-54.66C265.84-3.04,164.51-20.49,88.59,26.29,49.66,50.27,16.98,88.66,7.3,134.07c-9,42.24-1.42,88.82,26.85,122.32,32.78,38.85,83.79,54.27,129.67,71.59,25.26,9.54,53.12,18.07,75.65,33.29,19.95,13.47,30.74,32.27,39.75,54.01,24.3-22.84,15.7-56.55-5.79-78.88-23.18-24.1-54.15-38.28-84.72-50.53-53.22-21.33-138.89-40.67-136.23-113.42Z"/>
    </g>
  </g>
</svg>